<?xml version="1.0" encoding="utf-8"?>
<!-- Generator: Adobe Illustrator 24.3.0, SVG Export Plug-In . SVG Version: 6.00 Build 0)  -->
<svg version="1.1" id="Layer_1" xmlns="http://www.w3.org/2000/svg" xmlns:xlink="http://www.w3.org/1999/xlink" x="0px" y="0px"
	 viewBox="0 0 1920 1080" style="enable-background:new 0 0 1920 1080;" xml:space="preserve">
<style type="text/css">
	.st0{fill:#FFEAEA;}
	.st1{clip-path:url(#SVGID_2_);fill:#FFD8D8;}
	.st2{clip-path:url(#SVGID_2_);fill:#FFC3C3;}
	.st3{clip-path:url(#SVGID_2_);fill:#FFB0B0;}
	.st4{clip-path:url(#SVGID_2_);}
	.st5{fill:#FFB0B0;}
</style>
<rect class="st0" width="1920" height="1080"/>
<g>
	<defs>
		<rect id="SVGID_1_" width="1920" height="1080"/>
	</defs>
	<clipPath id="SVGID_2_">
		<use xlink:href="#SVGID_1_"  style="overflow:visible;"/>
	</clipPath>
	<path class="st1" d="M1866.9,829.5c-23.7,7.8-42.9,25.7-57.8,45.7c-14.8,20.1-26,42.5-39,63.9c-12.9,21.3-28.2,42-48.9,55.9
		c-23.6,15.9-52.4,21.8-78.7,32.7c-26.3,10.9-52.5,30.1-57.9,58c-4.9,25.7,9.9,52.3,31.1,67.7c21.2,15.4,47.6,21.7,73.6,25.5
		c64.9,9.5,134.3,5,191-28c51.1-29.8,88.4-82.4,99.7-140.5c3.3-17.1,4.3-34.6,3.2-52c-1.1-17.4-4.4-34.6-9.7-51.3
		c-5.3-16.6-12.6-32.6-21.9-47.3c-3.6-5.8-7.3-12.4-13-16.4c-2.2-1.5-4.6-2.7-6.8-4.1c-3.5-2.1-6.7-4.5-10.3-6.4
		c-14.8-7.7-32.7-9-48.8-5.2C1870.8,828.3,1868.8,828.8,1866.9,829.5z"/>
	<path class="st1" d="M-562.9,818.7c88.6-53.9,201.3-84.4,296.1-42.3c43,19.1,81.2,52.5,128,57.6c84,9.2,162.8-76,243.7-51.4
		c43.4,13.2,73.4,55.6,117,68c43.7,12.4,89.2-7.9,131.2-25.4c41.4-17.3,85-32.4,129.8-31.7c44.9,0.6,91.7,19.7,115.4,57.8
		c21.1,33.8,20.9,77.8,7.3,115.3c-22.4,61.9-77.5,107.7-138,133.7c-60.5,26-126.8,34.9-192.2,43.1c-316.7,40-641.6,71.3-952.1-2.4
		c-36.1-8.6-73.2-19.2-101.1-43.7c-19.5-17.1-33-42.4-33.8-68.6c-0.2-8.7,0.3-18,6-25c6.1-7.5,15.4-12.6,23.1-18.2
		c23.8-17.4,46.7-35.9,69.5-54.5c22.9-18.7,45.8-37.6,69.1-55.7c23.3-18.1,47.2-35.5,72.2-51.3
		C-568.7,822.3-565.8,820.5-562.9,818.7z"/>
	<path class="st1" d="M233.9,91.5C220.4,47.1,187.7,9.9,148-14.1c-39.7-24-86-35.6-132.2-39.1c-58.4-4.3-119.6,4.8-168.3,37.3
		c-48.7,32.5-82,91.5-73.2,149.4c7.6,50.1,45,92.1,89.8,115.9c61.1,32.4,139,39.1,207,33.5c36.5-3,73.2-12.5,103.9-32.4
		c35.8-23.2,61.9-61.4,64.9-104.6c1.1-16.2-0.3-32.7-4.4-48.5C235,95.4,234.5,93.4,233.9,91.5z"/>
	<path class="st2" d="M2082.1-43.7c-28.3-43.3-75-72.9-125-86.2c-50-13.3-103.3-11.2-153.9-0.4c-63.9,13.6-126.7,42.6-168.7,92.6
		c-42,50.1-59.2,123.7-31.7,183c23.8,51.3,77.1,84.6,132.5,96c75.6,15.5,161.2-1.7,232.3-29c38.2-14.7,74.5-36.3,101.2-67.3
		c31.1-36.1,47-85.2,36.8-132.4c-3.9-17.8-10.6-34.9-19.9-50.5C2084.5-40,2083.3-41.9,2082.1-43.7z"/>
	<path class="st3" d="M845.3,1105.9c0-0.1,0.1-0.2,0.1-0.3c0.7,0.3,1.6,0.1,2.1-0.7c0.3-0.4,0.6-0.7,0.8-1.1
		c17.4-1.3,34.9-2.3,52.3-2.6c15.7-0.3,31.6,0.8,47.3-0.4c14.8-1.1,28.7-5.3,40.2-15c6.1-5.1,11.5-11,17.8-15.9
		c6-4.7,12.8-7.7,19.9-10.4c6.9-2.6,13.9-4.9,20.3-8.5c6.8-3.8,12.2-9.2,16.7-15.5c5.2-7.2,9.6-15,14.2-22.6
		c4.9-8,9.8-16.1,14.7-24.1c9.5-15.6,19.9-31,27.8-47.5c3.8-8.1,6.8-16.5,8.3-25.3c1.5-8.6,1.8-17.3,1.6-26
		c-0.7-32-5.3-64.2-16.9-94.2c-1.5-3.8-3-7.5-4.7-11.2c-0.8-1.8-3.4-0.8-3.2,1.1c1,7.5-0.9,15-5.7,20.9c-4.7,5.7-11.3,8.7-18,11.2
		c-6.6,2.4-13.2,4.5-19,8.5c-5.4,3.6-9.9,8.4-13.8,13.6c-8.8,12-13.5,26.3-18,40.4c-2.6,8.2-5.2,16.4-8.7,24.2
		c-1.6,3.6-3.5,7.1-5.5,10.4c-0.1,0.1-0.2,0.2-0.2,0.4c-2.1,3.5-4.5,6.8-7,10.1c-9.5,12.4-20.5,23.6-28.7,37
		c-7.8,12.6-13,26.6-18.6,40.3c-5.5,13.5-11.4,27.2-20.7,38.6c-8.2,10-18.9,16.9-30.5,22.3c-20.5,9.5-44.7,15.1-60.6,32.3
		c-0.2,0.3-0.5,0.6-0.7,0.8c3.7-9.4,7.1-18.8,10.3-28.4c13.2-8.6,25.6-18.2,36.7-29.3c12-12,23.6-25.3,31.4-40.4
		c4-7.6,6.8-15.7,8.3-24.2c1.6-9,1.9-18.1,3.9-27c3.6-16.1,12.7-30.6,15.1-47c2.3-15.7-4.3-29.8-7.9-44.7
		c-3.9-16.1,0.5-32.7-3.4-48.8c-1.7-7.1-4.7-13.9-8.8-20c-4.5-6.7-10.5-12.1-16.6-17.4c-6.3-5.5-12.6-11-17.5-17.8
		c-4.8-6.7-8.5-14.2-12.9-21.1c-8.4-13-20.2-22.5-34.2-28.9c-14.3-6.5-29.8-9.8-45.2-12.1c-3.9-0.6-7.9-1.1-11.8-1.6
		c-1.3-0.2-2.7,1.6-1.9,2.8c15.3,22.9,19.7,51,11.7,77.4c-8.3,27.3-27.3,52.6-24.7,82.4c1.3,14.2,7.4,27.4,9.1,41.6
		c1.9,15.2-2.8,30-4.5,45c-2.7,24.3,1.8,49.2,12.2,71.2c10.4,22,26.7,41.9,47.2,55.1c2.6,1.7,5.3,3.1,7.9,4.6c1.8,1,3.6-1.7,1.8-2.7
		c-21.4-12-38.9-31-50.3-52.6c-11.5-21.7-17.4-46.5-15.5-71c0.7-9.7,3-19.3,4.3-28.9c13.3,13.3,27.1,26.2,40.6,39.3
		c13.8,13.3,27.5,26.6,41.3,39.9c-1,5.8-2.1,11.5-3.4,17.2c-6.3,29.1-15.3,57.5-26.4,85.1c-1.4,3.4-2.8,6.8-4.2,10.1
		C840.8,1106.9,844.4,1108.1,845.3,1105.9z M937.2,798.5c3.1,7.2,4.6,14.9,4.8,22.8c0.2,8-0.6,16.1,0,24.1c1,13.5,7,25.9,9.2,39.2
		c-9.4,13.3-18.3,27-27.5,40.6c-9.8,14.5-19.7,28.9-29.8,43.1c-4.8,6.8-9.7,13.6-14.6,20.3c3.2-19.3,5.3-38.8,6.1-58.4
		c0.8-19.2,0.3-38.5-1.5-57.7c0.3-0.4,0.6-0.9,0.9-1.2c1.2-1.6,2.4-3.1,3.6-4.7c8.3-11,16.3-22.1,23.9-33.6
		c8.2-12.3,16-24.8,23.5-37.5C936.2,796.5,936.7,797.5,937.2,798.5z M879.3,725.4c5,6,8.7,13,12.7,19.7c4,6.7,8.5,13,14.2,18.4
		c5.8,5.6,12.3,10.5,18.1,16.3c4.2,4.2,7.9,9,10.7,14.2c-13,22.1-27.2,43.5-42.5,64.1c-1.9,2.5-3.7,5-5.6,7.4c-1,1.3-2,2.6-3,3.9
		c-0.1,0.1-0.2,0.2-0.2,0.3c-1-9.7-2.3-19.5-4-29.1c-3.6-20.2-8.8-40.3-16.1-59.5c3-9.9,5.8-19.9,8.3-30c1.3-5.1,2.6-10.3,3.7-15.5
		c0.9-3.7,2.1-7.7,2.6-11.6C878.5,724.5,878.9,725,879.3,725.4z M803.5,693c26.4,3.4,54.9,9.7,73.4,29.7c-1.5,4.1-2.1,8.7-3.2,12.9
		c-1.2,5.2-2.5,10.3-3.8,15.5c-2.3,9.3-4.8,18.5-7.3,27.7c-2.3-5.9-4.8-11.7-7.5-17.4c-11.6-24.6-27.3-47.5-47.9-65.4
		C805.9,695,804.7,694,803.5,693z M802.5,697.1c-0.8-1.5-1.7-3-2.6-4.5c0,0,0.1,0,0.1,0c20.3,17.2,36.8,38.3,49.1,62
		c4.4,8.4,8.2,17,11.6,25.8c-16.3-8.4-32.3-17.1-48.6-25.5C814.9,735.2,811.9,715,802.5,697.1z M807.5,773.5
		c1.9-5.6,3.4-11.4,4.3-17.2c16.5,8.8,33.2,17.2,49.7,26.1c6.1,16.1,10.6,32.8,14,49.6c2.6,13.3,4.5,26.7,5.8,40.2
		c-0.4,0.2-0.7,0.3-1.2,0.4c-0.4-0.3-0.8-0.6-1.3-0.9c-5.6-3.8-11.2-7.6-16.7-11.4c-11.3-7.7-22.5-15.4-33.8-23.1
		c-12.2-8.3-24.4-16.7-36.6-25C796.6,799.2,803.1,786.5,807.5,773.5z M835.7,951.2c-13.9-13.4-27.6-27-41.7-40.1
		c0.5-4.1,0.9-8.3,0.8-12.4c-0.2-14.5-6.1-27.8-8.8-41.8c-2.9-15,0.1-29.2,5.1-42.9c23.2,15.9,46.4,31.7,69.6,47.7
		c5.8,4,11.6,8.1,17.5,12c1.1,0.7,2.1,1.5,3.3,1.1c1.3,15.3,1.8,30.7,1.5,46.1c-0.5,23.2-2.9,46.4-6.9,69.3
		C862.6,977.2,849.2,964.2,835.7,951.2z M873.1,1019.4c2.1-8.9,3.9-17.8,5.4-26.8c20.3-28,40.1-56.3,59-85.2
		c4.7-7.2,9.3-14.4,13.7-21.8c0.1,0.8,0.2,1.6,0.3,2.5c1.7,16.6-6.6,31.7-12,46.8c-2.8,7.8-4.5,15.7-5.4,23.9
		c-1,8.7-1.7,17.5-4.4,25.9c-5.2,16.5-16,30.8-27.3,43.6c-10.8,12.2-22.9,23.3-35.9,33c-2.1,1.6-4.3,3.1-6.5,4.6
		C865.1,1050.6,869.5,1035.1,873.1,1019.4z M1012.4,1062.2c-6.6,3.5-12.1,8.5-17.6,13.5c-4.3,4-8.6,8-13.3,11.3
		c-9.3-5.7-18.8-11.1-28.2-16.5c-2.3-1.3-4.7-2.7-7-4c-1.2-0.7-2.3-1.3-3.5-2c-0.7-0.4-1.7-0.8-2.5-1.3
		c14.3-7.7,28.2-16.1,41.6-25.5c8.7,2.7,17.4,5.4,26,8.3c4.4,1.5,8.8,2.9,13.2,4.5c3.7,1.3,7.5,2.4,11.2,3.7
		C1025.5,1056.6,1018.6,1058.8,1012.4,1062.2z M1067.1,1024.2c-4.4,7.1-9,14.4-15.5,19.8c-5.2,4.3-11.3,7.1-17.5,9.4
		c-4.1-1.3-8.1-3-12.1-4.4c-4.6-1.6-9.1-3.1-13.7-4.6c-8.3-2.7-16.7-5.3-25.1-7.8c4.4-3.1,8.7-6.3,13-9.6
		c11.6-9,22.5-18.9,32.6-29.5c16.3,3.5,32.7,6.7,49.3,8.9C1074.3,1012.4,1070.8,1018.3,1067.1,1024.2z M1095.4,977.9
		c-5.5,9-11,18-16.5,27c-8.5-1.2-16.9-2.5-25.4-4c-4.5-0.8-9-1.6-13.4-2.5c-1.9-0.4-3.9-0.8-5.8-1.2c-1-0.2-1.9-0.4-2.9-0.6
		c-0.6-0.1-1.1-0.2-1.4-0.3c16.8-17.9,31.4-37.7,43.4-59.1c7.8,0,15.7-1.3,23.5-2c7.8-0.7,15.6-1.3,23.4-2
		C1114,949,1104.3,963.4,1095.4,977.9z M1126.3,878c1.1,17.3,1.3,34.9-4.6,51.5c-0.2,0.7-0.5,1.3-0.8,2c-7.9,0.7-15.9,1.3-23.8,2
		c-7.5,0.6-15.3,0.7-22.8,1.8c8.6-15.7,15.9-32.2,21.5-49.3c2.8-8.5,5.2-17.2,7.3-25.9c7.1-1.2,14.1-2.4,21.2-3.5
		C1125.2,863.7,1125.8,870.9,1126.3,878z M1124.1,855c-6.9,1-13.8,2.1-20.6,3.5c1.5-6.8,2.8-13.6,3.9-20.4
		c2.1-13.7,3.8-28.4,1.7-42.3C1116.9,814.7,1121.5,834.7,1124.1,855z M1096,812.2c5.3-4.1,9.1-10.2,10.8-16.6
		c0.1-0.2,0.1-0.4,0.1-0.6c0.4,5.6,0.7,11.1,0.6,16.7c-0.2,7.3-0.9,14.5-1.8,21.7c-1,7.4-2.2,14.8-3.8,22.1
		c-3.9-13.1-8.5-26-14.1-38.5C1090.8,815.7,1093.5,814.2,1096,812.2z M1059.4,830.6c5.6-4.7,12.1-7.4,18.9-9.9
		c2.8-1,5.7-2.1,8.5-3.3c5.9,13.2,10.8,26.8,14.6,40.7c-1.4,6.2-2.9,12.4-4.7,18.5c-5.7,19.5-13.5,38.4-23.2,56.3
		c-1.3-7.4-2.2-14.9-3.5-22.3c-1.4-8.6-2.9-17.2-4.4-25.8c-3-16.9-6-34-10.2-50.6C1056.7,833,1058,831.8,1059.4,830.6z
		 M1019.2,914.8c4.1-7.2,7.2-14.9,9.9-22.8c5.1-15.1,8.7-30.8,16.7-44.7c2.6-4.5,5.6-8.7,9.1-12.4c2.8,16.8,6.4,33.5,9.4,50.3
		c1.5,8.4,2.9,16.9,4.3,25.4c1.3,8.2,2.9,16.5,3.8,24.8c-4,7.4-8.3,14.6-13,21.5c-9.1,13.6-19.3,26.3-30.4,38c0-0.1,0-0.2-0.1-0.2
		c-0.8-4-1-8.2-1.5-12.3c-0.5-4.3-1.1-8.5-1.7-12.8c-1.2-8.5-2.4-17-3.8-25.5c-1.4-8.6-2.6-17.5-4.6-26
		C1017.9,916.9,1018.6,915.9,1019.2,914.8z M1005.7,933.9c3.7-4.6,7.3-9.3,10.5-14.2c0.7,5.5,1.8,10.9,2.7,16.3
		c1.1,6.7,2.1,13.4,3.1,20.1c2,13.4,3.8,26.9,5.4,40.3c-14,14.5-29.4,27.6-45.8,39.2c-0.1-21.9-0.4-43.7-2.1-65.5
		C986.6,956.9,996.3,945.6,1005.7,933.9z M960.7,1014c6-13.9,10.8-28.3,17.7-41.8c0.1-0.1,0.1-0.2,0.2-0.3
		c1.5,21.5,2.5,43.2,1.6,64.7c-13.2,9.3-27.1,17.6-41.4,25.1c-0.8-2.1,0.8-6.3,1.2-8.2c0.5-2.3,0.9-4.6,1.1-6.9
		C949.6,1037.2,955.6,1025.7,960.7,1014z M907.2,1069.3c11-4.8,21.7-10.5,30.4-18.9c0.5-0.4,0.9-0.9,1.3-1.4c-0.3,1.3-0.5,2.6-0.8,4
		c-0.3,1.7-0.6,3.3-0.9,5c-0.2,1.2-0.7,2.6-0.6,3.7c0,0.4,0.1,0.8,0.3,1.1c-1.3,0.7-2.6,1.4-3.9,2.1c-25.7,12.9-52.2,23.7-79.4,32.9
		C867.7,1083.2,888.9,1077.2,907.2,1069.3z M850.2,1101.5c30.2-10.3,60-22.3,88.1-37.3c0.6,0.4,1.4,0.8,2,1.1
		c2.7,1.6,5.5,3.2,8.3,4.8c10.4,6,20.8,12.1,31.3,17.9c-1.2,0.8-2.4,1.5-3.6,2.1c-6.3,3.3-13.2,5.2-20.2,6.3
		c-15,2.3-30.3,1.2-45.4,1.3c-17.4,0.1-34.9,0.6-52.2,2.8c-2.9,0.4-5.7,0.8-8.6,1.2C850,1101.6,850.1,1101.6,850.2,1101.5z"/>
	<path class="st3" d="M1073.1,142c17.1-10.7,33.4-23.1,47.3-37.8c13.8-14.7,25.1-31.8,31.9-50.7c2.7-7.6,4.7-15.4,5.7-23.3
		c0.5-1.5,0.9-3,1.2-4.6c2.9,4.9,5.7,9.8,8.3,14.9c0,8.6-4.7,16.2-9.6,23c-5.4,7.6-10.8,15.1-15.7,23.1
		c-10,16.6-18.1,34.2-25.7,52.1c-4.3,10.2-8.4,20.4-12.5,30.6c-0.3,0.8,0.5,1.6,1.3,1.1c8.6-5.2,17.2-10.4,25-16.7
		c7.3-6,13.6-12.9,18.7-20.9c10.7-16.8,15.7-36.5,17.9-56.1c1.1-9.7,1.8-19.5,1.8-29.3c0.3-1.1,0.5-2.3,0.6-3.4
		c6,12.1,11.2,24.6,15.4,37.4c-1,15.3-11.6,27.6-20.5,39.4c-9.8,13-17.7,27.1-25.7,41.2c-4.8,8.5-9.6,17.1-14.3,25.7
		c-0.3,0.6,0.4,1.1,0.9,0.8c14.3-8.8,27.5-19.9,37.8-33.1c10.5-13.6,18.3-29.4,21.8-46.2c1.5-6.9,2.2-13.9,2.1-21
		c0.2,0.7,0.4,1.4,0.6,2.1c5.6,19.2,8.9,39,10,59c-22,10.6-41.6,25.7-57.4,44.2c-4.6,5.3-8.8,10.9-12.7,16.8
		c-0.4,0.6,0.4,1.5,1.1,1.2c22.9-10.5,44.6-24.8,60.1-45c3.5-4.6,6.6-9.5,9.2-14.6c0.6,11.8,0.3,23.6-0.6,35.4
		c-10.8,4.3-21.3,9.1-31.1,15.5c-10.3,6.6-19.7,14.5-28.1,23.4c-4.8,5.1-8.9,10.6-13.2,16.1c-0.5,0.6,0.1,1.5,0.8,1.3
		c5.7-1.8,11.2-4.5,16.6-7.2c5.5-2.8,10.8-5.9,15.9-9.3c10.1-6.7,19.6-14.6,27.8-23.5c4-4.3,7.7-8.9,11.1-13.7
		c-0.2,1.9-0.4,3.8-0.6,5.7c-0.9,8-2.1,16.1-3.7,24c-4.7,3.2-10.1,5.3-15.1,7.9c-5.3,2.7-10.5,5.8-15.5,9
		c-10,6.4-19.4,13.6-28.1,21.6c-5.1,4.6-10,9.4-14.4,14.6c-0.5,0.6,0.1,1.5,0.8,1.3c11.8-3.3,22.8-9.6,32.9-16.3
		c9.9-6.5,19.2-14,27.6-22.4c3.9-3.9,7.6-8.1,11.1-12.4c-0.2,0.8-0.3,1.5-0.5,2.2c-2.1,5.6-4.8,10.8-8.3,15.8
		c-3.9,5.7-8.3,10.9-12.6,16.3c-9.2,11.4-18.4,23.4-25.5,36.3c-3.8,7-6.8,14.4-8.2,22.2c-0.2,0.9,0.9,1.3,1.5,0.8
		c18.2-16.4,35-35.6,44.6-58.3c2.3-5.3,4-10.7,5.2-16.4c1.9-6.2,3.7-12.4,5.2-18.7c-0.2,21.4,5.2,42.6,11.3,62.9
		c1.9,6.4,4.1,12.6,5.9,19.1c0.2,0.7,1.3,0.6,1.4-0.1c2.3-11.7,2.5-24.2,0.7-35.9c-1.7-11.3-5.4-22.2-9.7-32.7
		c-2.4-5.9-5.2-11.8-7.9-17.6c0-0.1,0-0.3,0-0.4c0-0.4-0.2-0.6-0.5-0.7c1.1-5.2,2-10.3,2.8-15.6c0.6-4.4,1.2-8.9,1.6-13.3
		c4.7,8.7,6.5,18.5,8.9,28c2.7,10.8,6.9,21,11.1,31.3c2.4,5.9,4.9,11.9,6.4,18.1c0.2,0.6,1.2,0.6,1.3-0.1c1.8-11,0.5-23-2-33.8
		c-2.6-11.2-7.1-21.9-13.2-31.6c-3.4-5.4-7.5-10.5-12-15.1c0,0-0.1,0-0.1-0.1c0.9-10.8,1.1-21.7,0.7-32.5c1.7,4.7,3.5,9.3,5.5,13.9
		c2.7,6,5.6,11.8,8.8,17.6c3.2,5.8,6.6,11.4,10.2,16.9c3.7,5.7,7.8,11.1,11.7,16.7c4.5,6.5,7.9,13.6,11.3,20.8
		c0.4,0.8,1.5,0.2,1.5-0.5c0-14.4-5.1-28.1-11.7-40.7c-3.4-6.5-7.3-12.8-11.3-19.1c-3.5-5.6-7-11.1-11-16.3
		c-4.3-5.7-9.4-10.8-15.3-14.9c-0.4-7.2-1.1-14.3-2.1-21.4c7.7,10.4,15.2,20.9,24.2,30.3c4.8,5,10,9.7,15.6,13.8
		c5.6,4,11.6,7.3,17.7,10.6c7.1,3.9,14.3,7.8,20.2,13.6c0.4,0.4,1.1-0.1,0.9-0.6c-2.6-6.6-6.2-12.8-10.2-18.7
		c-4-5.9-8.4-11.5-13.2-16.7c-9.8-10.6-21.3-19.8-34-26.6c-6.7-3.6-13.7-6.5-21-8.8c0-0.1-0.1-0.1-0.1-0.2c-0.1-0.2-0.3-0.3-0.5-0.4
		c-2-13.2-5-26.3-8.9-39.1c7.1,10.2,16.1,19.1,26.4,26.1c12.2,8.2,26.1,12.6,39.3,18.7c7.4,3.4,15.6,7.5,20.9,13.8
		c0.5,0.6,1.6,0,1.1-0.7c-3.5-6.2-8.4-11.8-13.2-17.1c-4.9-5.4-10.4-10.3-16.2-14.7c-5.6-4.3-11.5-8.1-17.7-11.5
		c-6.5-3.6-13.4-6.3-20.4-8.9c-7.6-2.8-15.2-5.7-21.7-10.5c-0.1-0.2-0.3-0.4-0.4-0.6c-3.4-10.4-7.5-20.7-12.2-30.6
		c-0.9-1.8-1.8-3.6-2.7-5.5c20.8,22.2,48,41.2,78.8,44.8c9.6,1.1,19.6,0.8,29.2-0.2c0.7-0.1,1.2-1.1,0.5-1.6
		c-12.3-9.3-25.6-17.6-40-23.3c-7.3-2.8-14.8-5-22.4-6.6c-8.6-1.7-17.3-2.7-25.7-5.1c-4-1.2-8-2.8-11.6-4.9
		c-2.2-1.3-4.3-2.8-6.2-4.5c-2-1.7-4.1-3.2-5.7-5.2c-1.5-2-2.4-4.3-3.6-6.5c-1.3-2.4-2.8-4.6-4.2-6.9c-0.1-0.2-0.2-0.3-0.3-0.5
		c6.9,1,13,4.4,19,7.6c6.2,3.3,12.7,6,19.4,8.1c13.7,4.3,28,6.3,42.2,7.6c8.1,0.7,16.3,1.2,24.4,1.9c0.9,0.1,1.4-1.1,0.5-1.6
		c-12.8-7.8-26.5-14.4-40.5-19.7c-13.6-5.1-27.8-8.7-42.3-9.6c-8.2-0.5-16.8-0.4-24.3,3.1c-1.9-3-3.8-6-5.8-9c-2.7-4-5.4-8-8.9-11.4
		c-0.9-0.9-2.1,0.4-1.6,1.3c2.1,3.8,4.7,7.2,7.2,10.8c2.3,3.4,4.6,6.8,6.8,10.3c0.3,0.4,0.5,0.9,0.8,1.3c-0.2,2.2-0.5,4.4-0.8,6.6
		c-2.2,6.5-6.2,12.4-10.7,17.4c-6.7,7.5-14.6,14-21.6,21.2c-13.5,13.7-25.6,28.8-36.1,44.9c-6,9.1-11.3,18.5-16.2,28.3
		C1071.5,141.6,1072.4,142.4,1073.1,142z M1165.5,72.3c-1,10.2-2.5,20.3-5.2,30.2c-4.9,18.1-13.8,35.3-28.1,47.7
		c-7.8,6.8-16.7,12.1-25.6,17.3c6.7-17.7,13.7-35.4,22-52.5c4.3-8.8,8.8-17.5,13.9-25.8c5.1-8.4,10.8-16.2,16.6-24.1
		c2.9-3.9,5.8-8.1,7.8-12.7C1166.5,59.1,1166.1,65.7,1165.5,72.3z M1147.1,199.6c-5.3,3.2-10.9,6-16.5,8.7
		c13.5-19.3,31-35.9,50.9-48.5c4.8-3,9.7-5.8,14.7-8.4C1184.6,171.7,1167.2,187.7,1147.1,199.6z M1173.4,213
		c-9.1,7.9-19.1,14.7-29.6,20.3c-5.3,2.8-10.8,5.1-16.3,7.4c3.1-4.2,6.6-8.2,10.1-12c4.1-4.4,8.4-8.6,13-12.5
		c9.1-7.7,19.1-14.5,29.7-20c5.1-2.6,10.4-5,15.8-6.9C1189,197.7,1181.7,205.8,1173.4,213z M1139.4,264.1
		c-5.4,2.9-10.9,5.7-16.8,7.5c7.7-7.8,15.6-15.4,24.3-22.2c9.3-7.3,19.3-13.8,29.7-19.4c4.7-2.5,9.8-4.7,14.4-7.5
		C1176.3,239.2,1158.9,253.5,1139.4,264.1z M1206.4,250.2c3.6,11,5.7,22.3,5.7,33.9c0,5.9-0.6,11.7-1.3,17.6
		c-1.5-4.4-2.9-9-4.3-13.5c-1.7-5.4-3.3-10.9-4.7-16.4c-2.9-11.1-5.2-22.5-6.2-34c-0.5-5.3-0.7-10.6-0.7-15.9
		C1199.2,231.1,1203.3,240.5,1206.4,250.2z M1174.3,271.8c-6.3,10.6-14,20.2-22.5,29.1c-4.1,4.3-8.5,8.5-12.9,12.5
		c2.8-13.6,10.9-25.5,18.8-36.7c4.4-6.2,9-12.2,13.8-18.1c4.3-5.3,8.8-10.6,12.7-16.2c1.7-2.5,3.3-5.1,4.7-7.8
		c-1.4,5.5-3,11-4.7,16.4C1181.6,258.2,1178.3,265.1,1174.3,271.8z M1225.4,247.2c0.4,5.2,0.3,10.4,0,15.6
		c-3.5-9.8-7.5-19.3-11.2-29c-2-5.3-3.7-10.7-5.1-16.2c-1.3-5.2-2.3-10.4-3.7-15.6c-1.3-4.7-2.9-9.3-5.1-13.6
		C1214.6,204.7,1223.6,225.6,1225.4,247.2z M1223.5,177.1c7.5,12,15.1,24.1,19.6,37.6c2.2,6.5,3.6,13.3,4,20.2
		c-2.6-5.1-5.3-10.1-8.4-14.9c-3.7-5.6-7.7-11-11.4-16.6c-7.3-11.1-13.7-22.8-19.2-34.9c-2.9-6.5-5.9-13-8.2-19.8
		C1209.9,156,1217,166.6,1223.5,177.1z M1263.2,173.6c4.1,5.8,7.4,12,10.7,18.3c-4.8-3.6-9.8-6.9-15-9.9c-6.1-3.6-12.3-7-18.1-11.1
		c-11.3-8.1-20.8-18.3-29.3-29.2c-4.4-5.6-8.5-11.3-12.6-17.1C1224.6,134.1,1247.5,151.1,1263.2,173.6z M1224.2,97.6
		c12.9,6.7,24.5,15.1,34.8,25.4c4.7,4.6,8.7,9.7,12.7,14.8c-4.2-3.1-8.5-6-13.3-8.4c-6.4-3.3-13.2-6-19.8-8.9
		c-6.6-2.9-13.1-5.8-19.2-9.6c-6.4-3.9-12.2-8.6-17.6-13.8c-5.2-5.1-9.8-10.8-13.8-16.9C1198.7,88.3,1212.4,91.5,1224.2,97.6z
		 M1175.6,130.5c-6.8,15.1-17,28.5-29,39.8c-6.2,5.8-12.9,11-20,15.6c8.3-14.2,16.3-28.5,24.9-42.6c4.4-7.2,9-14.2,14.1-21
		c4.9-6.5,10.1-12.7,14.1-19.8c2.5-4.5,4.5-9.4,5.5-14.4C1184.8,102.7,1181.7,117.1,1175.6,130.5z M1211,55.2
		c16.1,2.7,31.6,7.6,46,15.3c7.3,4,14.1,8.6,20.3,14.2c-8,0.3-15.9,1-23.9,0.3c-7.8-0.7-15.6-2.4-23-5
		c-14.7-5.1-28.1-13.4-40.2-23.2c-4.6-3.8-9-7.8-13.3-12C1186.9,51.3,1199.4,53.3,1211,55.2z M1180.9,17.7
		c7.3,0.3,14.5,1.3,21.6,2.8c14.2,3.1,27.9,8.5,41,14.9c6.3,3,12.4,6.4,18.6,9.6c-27.4-0.7-56.1-3.7-80.6-16.7
		c-6.4-3.4-12.8-7.3-20-8.6C1167.7,17.6,1174.4,17.4,1180.9,17.7z M1105.6,91.6c6.2-7.7,12.7-15.1,19.6-22.2
		c7.1-7.3,15.1-13.8,21.9-21.4c3.1-3.5,6-7.3,8.2-11.5c-3,14.1-8.4,27.5-15.9,39.9c-10.3,17.2-24.3,32-39.8,44.6
		c-7.9,6.4-16.2,12.3-24.8,17.8C1083.5,122.2,1093.9,106.3,1105.6,91.6z"/>
	<path class="st3" d="M1904.5,927.1c-7.4,12.8-13.7,26.3-17.6,40.6c-3.9,14.2-5.3,29.1-3.2,43.7c0.8,5.8,2.2,11.5,4.3,17
		c0.2,1.1,0.5,2.3,0.8,3.4c-3.6-2.1-7-4.4-10.4-6.8c-2.9-5.5-2.5-12.1-1.7-18.2c0.9-6.7,1.8-13.4,2.2-20.3c0.8-14.2,0-28.3-1.3-42.4
		c-0.7-8-1.6-16.1-2.4-24.1c-0.1-0.6-0.9-0.9-1.2-0.3c-3.8,6.3-7.5,12.6-10.4,19.4c-2.7,6.4-4.4,13-4.9,19.9
		c-1.2,14.5,2.4,28.9,7.7,42.3c2.6,6.6,5.6,13.2,8.9,19.6c0.2,0.8,0.5,1.6,0.8,2.4c-8-5.7-15.6-12.1-22.8-18.9
		c-4.6-10.2-2-21.8-0.3-32.5c1.9-11.7,2.2-23.6,2.5-35.4c0.2-7.2,0.4-14.3,0.5-21.5c0-0.5-0.6-0.6-0.9-0.2
		c-6.2,10.6-11,22.3-13.1,34.4c-2.2,12.4-1.8,25.2,1.7,37.4c1.4,5,3.4,9.8,5.8,14.3c-0.4-0.4-0.8-0.7-1.1-1.1
		c-10.2-10.5-19.1-22.2-26.7-34.7c10.6-14.4,18-30.9,21.9-48.2c1.1-5,1.9-10.1,2.5-15.2c0.1-0.5-0.8-0.9-1.1-0.4
		c-11.2,14.7-20.3,31.3-23.4,49.7c-0.7,4.2-1,8.4-0.9,12.6c-4.4-7.4-8.3-15.2-11.7-23.1c5.5-6.5,10.6-13.2,14.8-20.6
		c4.4-7.8,7.8-16.1,10.1-24.7c1.4-4.9,2.1-9.9,3-14.9c0.1-0.6-0.6-1-1-0.5c-3.1,3.1-5.7,6.7-8.3,10.3c-2.6,3.7-5,7.5-7.1,11.4
		c-4.2,7.8-7.6,16.1-9.9,24.7c-1.1,4.2-1.9,8.4-2.4,12.6c-0.5-1.3-1.1-2.6-1.6-3.9c-2.2-5.5-4.1-11.1-5.8-16.8
		c1.9-3.7,4.7-6.9,7.1-10.3c2.5-3.6,4.8-7.3,6.9-11.1c4.2-7.5,7.8-15.4,10.8-23.6c1.7-4.7,3.3-9.5,4.3-14.4c0.1-0.6-0.6-0.9-1-0.5
		c-6.5,6.2-11.4,14-15.7,21.8c-4.2,7.6-7.6,15.6-10.1,23.9c-1.2,3.9-2.2,7.8-2.9,11.8c-0.2-0.5-0.3-1.1-0.4-1.6
		c-0.6-4.3-0.6-8.6-0.1-13c0.5-5,1.6-9.9,2.6-14.8c2.1-10.6,3.9-21.4,4-32.2c0.1-5.8-0.6-11.6-2.3-17.2c-0.2-0.7-1-0.6-1.3,0
		c-6.1,16.8-10.4,35-8.9,52.9c0.4,4.2,1.1,8.3,2.2,12.4c0.9,4.7,1.9,9.3,3.1,13.9c-7.2-13.9-17.9-25.7-28.9-36.8
		c-3.4-3.5-7-6.8-10.3-10.3c-0.4-0.4-1.1,0-0.9,0.5c2.5,8.3,6.7,16.5,11.8,23.4c5,6.7,11.1,12.5,17.5,17.8c3.6,3,7.4,5.8,11.1,8.7
		c0,0.1,0.1,0.2,0.1,0.3c0.1,0.3,0.3,0.3,0.6,0.3c1.1,3.7,2.2,7.4,3.5,11c1.1,3.1,2.3,6.1,3.5,9.1c-6-4-10.6-9.7-15.3-15
		c-5.4-6.1-11.7-11.2-17.9-16.4c-3.6-3-7.2-6-10.3-9.5c-0.3-0.4-0.9,0-0.8,0.5c2.6,7.7,7.5,15,12.9,21.1
		c5.5,6.3,12.1,11.7,19.4,15.9c4.1,2.3,8.5,4.2,12.9,5.6c0,0,0.1,0,0.1,0c3.1,7.3,6.7,14.4,10.6,21.2c-2.7-2.4-5.4-4.8-8.3-7.1
		c-3.8-2.9-7.7-5.7-11.7-8.3c-4-2.6-8.1-5.1-12.4-7.4c-4.4-2.4-8.9-4.5-13.3-6.8c-5.2-2.7-9.8-6.1-14.4-9.6c-0.5-0.4-1,0.4-0.8,0.8
		c4.9,9.3,13,16.4,21.5,22.3c4.5,3.1,9.1,5.8,13.8,8.5c4.2,2.4,8.3,4.8,12.7,6.8c4.7,2.2,9.8,3.8,14.9,4.4c2.7,4.5,5.6,8.9,8.7,13.1
		c-8.5-4.1-17-8.3-26-11.3c-4.8-1.6-9.8-2.9-14.8-3.6c-5-0.7-10-0.7-15-0.8c-6-0.1-12-0.2-17.7-1.9c-0.4-0.1-0.7,0.4-0.4,0.7
		c3.9,3.4,8.4,6.1,13,8.6c4.6,2.5,9.4,4.6,14.3,6.3c10,3.5,20.5,5.5,31.1,5.6c5.6,0.1,11.1-0.5,16.6-1.5c0.1,0,0.1,0.1,0.2,0.1
		c0.2,0.1,0.3,0.1,0.4,0.1c5.8,7.8,12.2,15.3,19.1,22.2c-8.1-4.2-17-6.8-26-7.8c-10.7-1.2-21.2,0.8-31.8,1.4
		c-5.9,0.3-12.6,0.5-18.2-1.7c-0.6-0.2-1,0.5-0.5,0.9c4.4,2.8,9.5,4.8,14.4,6.5c5,1.8,10.2,3.1,15.5,4c5.1,0.8,10.2,1.3,15.3,1.4
		c5.4,0.1,10.8-0.5,16.2-1.3c5.8-0.8,11.8-1.5,17.6-0.6c0.2,0.1,0.3,0.2,0.5,0.3c5.8,5.6,11.9,10.8,18.4,15.6
		c1.2,0.9,2.4,1.8,3.6,2.6c-21-7.2-45.1-10.2-66.2-2c-6.6,2.6-12.9,6.2-18.8,10.1c-0.4,0.3-0.4,1.1,0.2,1.2
		c11.2,1.8,22.5,2.6,33.8,1.3c5.7-0.6,11.3-1.8,16.7-3.4c6.1-1.8,12.1-4.2,18.3-5.5c3-0.6,6.1-0.9,9.2-0.8c1.9,0.1,3.7,0.3,5.6,0.7
		c1.8,0.4,3.8,0.6,5.5,1.4c1.7,0.7,3,1.9,4.6,2.9c1.6,1.1,3.4,2,5.1,3c0.1,0.1,0.2,0.1,0.4,0.2c-4.8,1.7-9.9,1.6-14.9,1.6
		c-5.2,0-10.3,0.5-15.3,1.4c-10.3,1.9-20.2,5.5-29.9,9.6c-5.5,2.3-10.9,4.8-16.4,7.1c-0.6,0.3-0.5,1.2,0.2,1.2
		c10.9,0.6,22.1,0.2,32.9-1.2c10.5-1.3,20.9-3.9,30.6-8.3c5.4-2.5,11-5.5,14.6-10.4c2.3,1.3,4.5,2.6,6.8,3.8
		c3.1,1.6,6.2,3.3,9.6,4.3c0.9,0.3,1.2-1,0.5-1.4c-2.7-1.7-5.5-3-8.3-4.5c-2.7-1.4-5.3-2.8-7.9-4.3c-0.3-0.2-0.7-0.4-1-0.6
		c-0.6-1.5-1.2-3-1.8-4.6c-0.8-4.9-0.2-10.1,1-14.9c1.8-7.2,4.6-14,6.7-21.1c4-13.5,6.7-27.4,8-41.4c0.7-7.9,0.9-15.9,0.8-23.8
		C1905.6,926.7,1904.8,926.5,1904.5,927.1z M1868.7,1003.7c-2.8-6.9-5.3-14-7-21.3c-3-13.4-3.2-27.5,1.8-40.5
		c2.7-7,6.7-13.5,10.6-19.9c1.7,13.8,3.3,27.5,3.8,41.4c0.3,7.1,0.3,14.3-0.1,21.4c-0.4,7.1-1.4,14.2-2.5,21.2
		c-0.5,3.5-1,7.2-0.7,10.9C1872.6,1012.6,1870.6,1008.2,1868.7,1003.7z M1837,915.2c2.4-3.9,4.9-7.6,7.6-11.3
		c-2.1,17.1-7.7,33.8-16.3,48.8c-2,3.6-4.3,7.1-6.6,10.5C1822.3,946.1,1828.1,929.8,1837,915.2z M1815.4,915.6
		c3.2-8.2,7.3-16,12.2-23.3c2.5-3.6,5.2-7,8-10.4c-0.5,3.8-1.4,7.6-2.4,11.2c-1.1,4.3-2.5,8.5-4.1,12.6c-3.2,8.1-7.3,15.9-12.3,23.1
		c-2.4,3.5-5,6.8-7.8,9.9C1810.5,930.8,1812.5,923,1815.4,915.6z M1819.9,870.9c2.5-3.7,5.1-7.4,8.3-10.6
		c-2.3,7.7-4.8,15.3-8.1,22.7c-3.5,7.9-7.7,15.5-12.6,22.7c-2.2,3.3-4.7,6.4-6.7,9.8C1804.5,899.6,1810.9,884.4,1819.9,870.9z
		 M1781.3,902.9c-6.1-5.9-11.3-12.4-15.3-19.9c-2-3.8-3.6-7.8-5.2-11.8c2.5,2.3,4.9,4.8,7.4,7.2c2.9,2.9,5.8,5.9,8.6,8.9
		c5.7,6.2,11.1,12.8,15.7,19.8c2.1,3.3,4.1,6.6,5.9,10.1C1792.5,912.7,1786.7,908,1781.3,902.9z M1794.7,877.9
		c0.4-9,2.1-17.9,4.6-26.5c1.2-4.2,2.6-8.4,4-12.5c2.8,9.7,1.7,20.2,0.4,30.1c-0.7,5.5-1.6,11-2.7,16.5c-1,4.9-2,9.8-2.6,14.8
		c-0.3,2.2-0.4,4.4-0.4,6.7c-1-4-1.8-8.1-2.6-12.2C1794.6,889.2,1794.4,883.5,1794.7,877.9z M1770.1,911.3
		c-2.1-3.2-3.7-6.6-5.4-10.1c5.6,5.1,11.5,9.9,17.2,14.9c3.1,2.7,6.1,5.6,8.8,8.7c2.6,2.9,5.1,5.9,7.7,8.8c2.4,2.6,5,5,8,7
		C1791.6,935,1778.6,924.6,1770.1,911.3z M1795.3,955.9c-8.9-5.1-18-10.4-25.6-17.5c-3.7-3.5-6.9-7.4-9.5-11.7
		c3.4,2.4,6.9,4.7,10.6,6.8c4.3,2.4,8.8,4.4,13.1,6.8c8.5,4.7,16.7,10,24.3,15.9c4.1,3.2,8.3,6.4,12.1,10
		C1811.3,964.9,1803.2,960.4,1795.3,955.9z M1770.9,971.8c-4.6-2.4-8.9-5.2-13.2-8.2c4.3,0.7,8.7,1.1,13.1,1.3
		c5.2,0.2,10.4,0.3,15.5,1c10.1,1.3,19.7,4.7,28.9,8.8c4.7,2.1,9.4,4.4,14,6.7C1809.3,984.1,1788.7,980.9,1770.9,971.8z
		 M1822.1,1007.5c-10.6,0.1-21-1.4-31.1-4.5c-4.6-1.4-8.9-3.3-13.3-5.2c3.8,0.6,7.6,1,11.5,0.9c5.3-0.1,10.6-0.6,15.8-1
		c5.2-0.4,10.5-0.7,15.7-0.4c5.4,0.4,10.8,1.3,16.1,2.9c5.1,1.5,10,3.6,14.7,6.2C1841.8,1004.8,1831.8,1007.4,1822.1,1007.5z
		 M1842.2,969.6c-0.8-12.1,1.2-24.2,5.1-35.6c2-5.9,4.6-11.5,7.6-16.9c-0.5,12-0.8,24-1.5,36c-0.4,6.1-0.9,12.3-1.9,18.4
		c-0.9,5.8-2.2,11.7-2.3,17.6c-0.1,3.7,0.3,7.6,1.4,11.2C1845.8,990.7,1842.9,980.3,1842.2,969.6z M1845.2,1030.3
		c-11.3,3.8-23,5.9-34.9,5.8c-6.1,0-12.1-0.7-18-2.2c5-3,9.9-6.1,15.3-8.4c5.3-2.2,10.9-3.8,16.6-4.7c11.3-1.8,22.8-1,33.9,1.2
		c4.3,0.9,8.5,2,12.7,3.2C1862.1,1024.6,1853.4,1027.6,1845.2,1030.3z M1877.5,1044.3c-4.8,2.3-9.8,4.2-14.9,5.6
		c-10.3,2.8-20.9,4-31.6,4.4c-5.1,0.2-10.2,0.1-15.3,0.1c17.9-8.9,37.5-16.8,57.8-16.9c5.3,0,10.7,0.3,15.8-1.3
		C1886,1039.8,1881.8,1042.2,1877.5,1044.3z M1900.8,970.7c-1.3,7.1-3,14.1-5.1,21.1c-2.1,7.1-5,14.1-6.8,21.3
		c-0.8,3.3-1.3,6.8-1.3,10.2c-2.9-10.1-4-20.7-3.4-31.2c0.8-14.6,4.7-29,10.4-42.4c2.9-6.9,6.3-13.5,9.9-20
		C1904.6,943.4,1903.3,957.2,1900.8,970.7z"/>
	<path class="st3" d="M2130.8,201.6c-27.1,16-56.8,26.3-88.2,29.3c-31.1,3-63-0.8-92.4-11.5c-29.2-10.7-53.9-29.3-79.8-46.1
		c-25.8-16.8-52.7-30.5-84.1-31.8c-35.1-1.5-69.7,9-104.8,6.5c-30.7-2.2-59.8-16.3-80.6-39.1c-18.2-20-27.1-48.7-50.4-63.9
		c-13.4-8.7-29.5-9.6-45-8.3c-16.6,1.4-33,4.4-49.6,6.1c-31.7,3.3-64.8,1.2-89.5-21.1c-20.7-18.7-31.9-45.9-38.7-72.4
		c-1.8-7-3.2-14-4.4-21.1c-0.1-0.7-1.3-0.7-1.2,0.1c4.3,27.1,11.4,55,26.9,78c7.4,11,16.8,20.7,28.1,27.8
		c13.2,8.4,28.6,12.4,44.1,13.6c16.4,1.3,32.8-0.3,49-2.5c17-2.3,34.2-6.1,51.4-5.4c16.6,0.6,30.4,7.7,41.1,20.2
		c9.3,10.9,16.1,23.7,24,35.5c16.3,24.4,40.2,42.7,68.4,51.2c33.6,10.1,68.1,2.7,102.1-0.7c17.8-1.7,35.9-2.2,53.5,2
		c15.2,3.6,29.4,10.4,42.9,18.2c27,15.7,51.2,36,79.6,49.2c56,26.1,123.8,25.8,179.8-0.1c6.9-3.2,13.5-6.7,19.8-10.8
		C2135.1,203.6,2132.9,200.3,2130.8,201.6z"/>
	<path class="st3" d="M2109.5,149.1c-32.3,4.8-64.6,11-97.4,8c-29.2-2.7-56.1-12.5-78.5-31.6c-10-8.6-19.3-18.1-30.3-25.5
		c-11.2-7.6-23.7-12-37.3-12.8c-30-1.6-58.1,12-87,17.6c-26.3,5.1-55.5,5.5-79.9-6.9c-24.6-12.5-37.4-37.2-55.3-56.9
		c-8.9-9.8-19.2-17.8-31.4-23c-11.8-5.1-24.4-7.6-37.2-8.5c-27.8-2-55.1,3.6-82.5,7.6c-29.2,4.2-60.6,6.9-88.4-5.3
		c-24-10.6-42.2-32.4-49.8-57.4c-1.9-6.3-3-12.7-3.4-19.2c0-0.7-1.1-0.6-1.1,0.1c1,25.1,12.2,49,31.3,65.5
		c21.5,18.6,49.9,24,77.6,23.1c29.3-0.9,57.9-8.1,87.1-10.3c27.4-2.1,57-0.2,80.2,16.2c22.2,15.7,33.9,41.5,54.1,59.3
		c20,17.7,46.8,23.5,72.9,22.6c13.4-0.5,26.7-2.7,39.7-6c15.2-3.9,30.1-8.9,45.5-11.9c15.9-3.2,32.7-4.1,48.1,1.8
		c12.8,4.9,23.3,13.8,33.4,22.8c10.3,9.1,20.4,18.3,32.4,25.2c12.3,7,25.9,11.7,39.8,14.6c31,6.5,63,3.7,94-0.9
		c8-1.2,15.9-2.5,23.9-4C2112.5,152.7,2111.8,148.8,2109.5,149.1z"/>
	<path class="st3" d="M-206.1,841.8c6.9,2.4,13.6,5.2,20.1,8.4c52.6,25.8,92.9,73.1,150.8,88.4c27.9,7.4,58.3,8,86.2,0.2
		c7.4-2,14.8-4.9,21.4-9c18.3,20,43.2,32.9,67.7,43.7c26.5,11.7,54.1,21.5,78.7,37c22.2,14,41.8,31.9,58.4,52.2
		c33.7,41.3,55.4,91.5,68.8,142.8c0.4,1.5,2.7,1.1,2.3-0.4c-1.6-5.8-3.2-11.6-5-17.4c-14.5-47.5-36.7-93.6-69.2-131.4
		c-15.9-18.5-34.4-34.9-55.1-47.8c-23-14.4-48.4-24.1-73.2-34.9c-25.1-11-50.4-23.6-69.9-43.3c-0.5-0.5-1.1-1.1-1.6-1.6
		c3.9-2.6,7.5-5.7,10.5-9.4c7.3-8.9,9.9-23.5-0.8-31.2c-8.7-6.2-18.9,0-22.6,8.7c-4.8,11.2,2,22.9,9.3,31.3c0.1,0.1,0.1,0.1,0.2,0.2
		c-3,1.7-5.9,3.2-8.7,4.3c-12.8,5.3-27,7.6-40.8,8.6c-28.9,2.1-58-3.4-84.3-15.6c-50.5-23.5-89.3-67.2-142.7-85
		C-206.5,840.2-207,841.5-206.1,841.8z M72.8,926.9c-7.4-8.3-14.3-19.3-9.3-30.2c2.4-5.1,7.3-9.7,13.3-9.3
		c7.1,0.4,11.9,7.4,12.5,14.1C90.3,912.4,82,921,72.8,926.9z"/>
	<g class="st4">
		<g>
			<path class="st5" d="M160.8,153.4c7,9.5,5.1,22.7-4.1,29.5c-9.2,6.8-22.4,4.5-29.4-5c-7-9.5-5.1-22.7,4.1-29.5
				C140.7,141.7,153.9,143.9,160.8,153.4z"/>
			<ellipse class="st5" cx="197.5" cy="117.1" rx="21.7" ry="19.4"/>
			<path class="st5" d="M213.3,226.3c-7.8,7.8-21.3,6.9-30.2-2c-8.9-8.9-9.8-22.4-2-30.2c7.8-7.8,21.3-6.9,30.2,2
				C220.1,205,221.1,218.5,213.3,226.3z"/>
			<path class="st5" d="M254.3,165.9c2.3,6.4-3.4,14.3-12.8,17.7c-9.4,3.4-18.8,1-21.1-5.4c-2.3-6.4,3.4-14.3,12.8-17.7
				C242.5,157.1,252,159.5,254.3,165.9z"/>
			<path class="st5" d="M96.9,144.6c1.6,4.4-2.4,9.9-8.8,12.2c-6.5,2.3-13,0.7-14.6-3.7c-1.6-4.4,2.4-9.9,8.8-12.2
				C88.8,138.5,95.3,140.2,96.9,144.6z"/>
			<path class="st5" d="M147.4,67c-3.9,2.6-10.2,0.1-14-5.5c-3.9-5.7-3.8-12.4,0-15.1c3.9-2.6,10.2-0.1,14,5.5
				C151.3,57.6,151.3,64.4,147.4,67z"/>
			<path class="st5" d="M215.5,60.4c-4.4,1.5-9.8-2.5-12.1-9c-2.2-6.5-0.4-13,4-14.5c4.4-1.5,9.8,2.5,12.1,9
				C221.8,52.3,220,58.8,215.5,60.4z"/>
			<path class="st5" d="M292,168.9c-2-4.2,1.4-10.1,7.6-13c6.2-2.9,12.9-1.9,14.9,2.3c2,4.2-1.4,10.1-7.6,13
				C300.7,174.2,294,173.1,292,168.9z"/>
			<path class="st5" d="M212.8,278.9c-2-4.2,1.4-10.1,7.6-13c6.2-2.9,12.9-1.9,14.9,2.3c2,4.2-1.4,10.1-7.6,13
				C221.5,284.2,214.8,283.1,212.8,278.9z"/>
			<path class="st5" d="M79.3,252.2c-4.4,1.5-9.8-2.5-12.1-9c-2.2-6.5-0.4-13,4-14.5c4.4-1.5,9.8,2.5,12.1,9
				C85.5,244.2,83.7,250.7,79.3,252.2z"/>
			<path class="st5" d="M155.4,118c0,5.4-7,9.8-15.6,9.8c-8.6,0-15.6-4.4-15.6-9.8c0-5.4,7-9.8,15.6-9.8
				C148.5,108.1,155.4,112.5,155.4,118z"/>
			<path class="st5" d="M259,233c-3.8,3.8-11.9,2-17.9-4.1c-6.1-6.1-7.9-14.1-4.1-17.9c3.8-3.8,11.9-2,17.9,4.1
				C261,221.1,262.8,229.1,259,233z"/>
			
				<ellipse transform="matrix(0.3618 -0.9323 0.9323 0.3618 64.4007 302.1648)" class="st5" cx="252.9" cy="104" rx="18" ry="12.3"/>
			<path class="st5" d="M149.7,236.2c3.6-9.3,1.4-18.8-4.9-21.2c-6.3-2.5-14.4,3.1-18,12.4c-3.6,9.3-1.4,18.8,4.9,21.2
				C138.1,251,146.1,245.5,149.7,236.2z"/>
		</g>
	</g>
</g>
</svg>
